# xmcd
#
# Track frame offsets: 
#        150
#        19326
#        36534
#        50655
#        66728
#        82485
#        104497
#        128275
#        141536
#        152506
#        171318
#        188462
#
# Disc length: 2714 seconds
#
# Revision: 0
# Processed by: cddbd v1.4PL0 Copyright (c) Steve Scherf et al.
# Submitted via: ExactAudioCopy v0.90b3
#
DISCID=b40a980c
DTITLE=Micke Björklöf and Blue Strip - Three times seven is...
DYEAR=2002
DGENRE=Blues
TTITLE0=RAY NEEDS A MOJO HAND
TTITLE1=5-10-15 HOURS
TTITLE2=MISS BLUECAP
TTITLE3=GOOD LIGHT
TTITLE4=MAPMAN
TTITLE5=LET MY LOVE SHINE OVER YOU
TTITLE6=LOWLAND GIRL
TTITLE7=ROCKET TO THE CITY MOON
TTITLE8=LOVE NO MORE
TTITLE9=MORNING TRAIN
TTITLE10=RED LIGHTNING MAMA
TTITLE11=WHEEL OF FORTUNE
EXTD=
EXTT0=
EXTT1=
EXTT2=
EXTT3=
EXTT4=
EXTT5=
EXTT6=
EXTT7=
EXTT8=
EXTT9=
EXTT10=
EXTT11=
PLAYORDER=
